<svg class="main-svg" xmlns="http://www.w3.org/2000/svg" xmlns:xlink="http://www.w3.org/1999/xlink" width="2400" height="1600" style="" viewBox="0 0 1200 800"><rect x="0" y="0" width="1200" height="800" style="fill: rgb(243, 243, 238); fill-opacity: 1;"/><defs id="defs-5bbe48"><g class="clips"><clipPath id="clip5bbe48xyplot" class="plotclip"><rect width="1040" height="572"/></clipPath><clipPath class="axesclip" id="clip5bbe48x"><rect x="80" y="0" width="1040" height="800"/></clipPath><clipPath class="axesclip" id="clip5bbe48y"><rect x="0" y="148" width="1200" height="572"/></clipPath><clipPath class="axesclip" id="clip5bbe48xy"><rect x="80" y="148" width="1040" height="572"/></clipPath></g><g class="gradients"/><g class="patterns"/></defs><g class="bglayer"/><g class="layer-below"><g class="imagelayer"/><g class="shapelayer"/></g><g class="cartesianlayer"><g class="subplot xy"><g class="layer-subplot"><g class="shapelayer"/><g class="imagelayer"/></g><g class="minor-gridlayer"><g class="x"/><g class="y"/></g><g class="gridlayer"><g class="x"><path class="xgrid crisp" transform="translate(137,0)" d="M0,148v572" style="stroke: rgb(94, 82, 64); stroke-opacity: 0.2; stroke-width: 1px;"/><path class="xgrid crisp" transform="translate(368.5,0)" d="M0,148v572" style="stroke: rgb(94, 82, 64); stroke-opacity: 0.2; stroke-width: 1px;"/><path class="xgrid crisp" transform="translate(600,0)" d="M0,148v572" style="stroke: rgb(94, 82, 64); stroke-opacity: 0.2; stroke-width: 1px;"/><path class="xgrid crisp" transform="translate(831.5,0)" d="M0,148v572" style="stroke: rgb(94, 82, 64); stroke-opacity: 0.2; stroke-width: 1px;"/><path class="xgrid crisp" transform="translate(1063,0)" d="M0,148v572" style="stroke: rgb(94, 82, 64); stroke-opacity: 0.2; stroke-width: 1px;"/></g><g class="y"><path class="ygrid crisp" transform="translate(0,693.15)" d="M80,0h1040" style="stroke: rgb(94, 82, 64); stroke-opacity: 0.2; stroke-width: 1px;"/><path class="ygrid crisp" transform="translate(0,617.29)" d="M80,0h1040" style="stroke: rgb(94, 82, 64); stroke-opacity: 0.2; stroke-width: 1px;"/><path class="ygrid crisp" transform="translate(0,541.4200000000001)" d="M80,0h1040" style="stroke: rgb(94, 82, 64); stroke-opacity: 0.2; stroke-width: 1px;"/><path class="ygrid crisp" transform="translate(0,465.56)" d="M80,0h1040" style="stroke: rgb(94, 82, 64); stroke-opacity: 0.2; stroke-width: 1px;"/><path class="ygrid crisp" transform="translate(0,389.7)" d="M80,0h1040" style="stroke: rgb(94, 82, 64); stroke-opacity: 0.2; stroke-width: 1px;"/><path class="ygrid crisp" transform="translate(0,313.83000000000004)" d="M80,0h1040" style="stroke: rgb(94, 82, 64); stroke-opacity: 0.2; stroke-width: 1px;"/><path class="ygrid crisp" transform="translate(0,237.97)" d="M80,0h1040" style="stroke: rgb(94, 82, 64); stroke-opacity: 0.2; stroke-width: 1px;"/><path class="ygrid crisp" transform="translate(0,162.1)" d="M80,0h1040" style="stroke: rgb(94, 82, 64); stroke-opacity: 0.2; stroke-width: 1px;"/></g></g><g class="zerolinelayer"/><g class="layer-between"><g class="shapelayer"/><g class="imagelayer"/></g><path class="xlines-below"/><path class="ylines-below"/><g class="overlines-below"/><g class="xaxislayer-below"/><g class="yaxislayer-below"/><g class="overaxes-below"/><g class="overplot"><g class="xy" transform="translate(80,148)"><g class="scatterlayer mlayer"><g class="trace scatter trace51cb9d" style="stroke-miterlimit: 2; opacity: 1;"><g class="fills" clip-path="url(#clip5bbe48xyplot)"/><g class="errorbars"/><g class="lines"><path class="js-line" d="M57,538.4L288.5,273.94L520,210.14L751.5,33.6L983,60.57" clip-path="url(#clip5bbe48xyplot)" style="vector-effect: none; fill: none; stroke: rgb(31, 184, 205); stroke-opacity: 1; stroke-width: 3px; opacity: 1;"/></g><g class="points"><path class="point" transform="translate(57,538.4)" d="M4,0A4,4 0 1,1 0,-4A4,4 0 0,1 4,0Z" style="opacity: 1; stroke-width: 0px; fill: rgb(31, 184, 205); fill-opacity: 1;"/><path class="point" transform="translate(288.5,273.94)" d="M4,0A4,4 0 1,1 0,-4A4,4 0 0,1 4,0Z" style="opacity: 1; stroke-width: 0px; fill: rgb(31, 184, 205); fill-opacity: 1;"/><path class="point" transform="translate(520,210.14)" d="M4,0A4,4 0 1,1 0,-4A4,4 0 0,1 4,0Z" style="opacity: 1; stroke-width: 0px; fill: rgb(31, 184, 205); fill-opacity: 1;"/><path class="point" transform="translate(751.5,33.6)" d="M4,0A4,4 0 1,1 0,-4A4,4 0 0,1 4,0Z" style="opacity: 1; stroke-width: 0px; fill: rgb(31, 184, 205); fill-opacity: 1;"/><path class="point" transform="translate(983,60.57)" d="M4,0A4,4 0 1,1 0,-4A4,4 0 0,1 4,0Z" style="opacity: 1; stroke-width: 0px; fill: rgb(31, 184, 205); fill-opacity: 1;"/></g><g class="text"/></g><g class="trace scatter trace3c7c43" style="stroke-miterlimit: 2; opacity: 1;"><g class="fills" clip-path="url(#clip5bbe48xyplot)"/><g class="errorbars"/><g class="lines"/><g class="points"><path class="point" transform="translate(288.5,273.94)" d="M3,0A3,3 0 1,1 0,-3A3,3 0 0,1 3,0Z" style="opacity: 0; stroke-width: 0px; fill: rgb(219, 69, 69); fill-opacity: 1;"/></g><g class="text"><g class="textpoint" transform="translate(0,-7.75)"><text x="288.5" y="273.94" text-anchor="middle" style="font-family: 'FK Grotesk Neue'; font-size: 12px; fill: rgb(46, 139, 87); fill-opacity: 1; white-space: pre;">+43.1%</text></g></g></g><g class="trace scatter tracec4a497" style="stroke-miterlimit: 2; opacity: 1;"><g class="fills" clip-path="url(#clip5bbe48xyplot)"/><g class="errorbars"/><g class="lines"/><g class="points"><path class="point" transform="translate(520,210.14)" d="M3,0A3,3 0 1,1 0,-3A3,3 0 0,1 3,0Z" style="opacity: 0; stroke-width: 0px; fill: rgb(46, 139, 87); fill-opacity: 1;"/></g><g class="text"><g class="textpoint" transform="translate(0,-7.75)"><text x="520" y="210.14" text-anchor="middle" style="font-family: 'FK Grotesk Neue'; font-size: 12px; fill: rgb(46, 139, 87); fill-opacity: 1; white-space: pre;">+7.3%</text></g></g></g><g class="trace scatter trace74aac6" style="stroke-miterlimit: 2; opacity: 1;"><g class="fills" clip-path="url(#clip5bbe48xyplot)"/><g class="errorbars"/><g class="lines"/><g class="points"><path class="point" transform="translate(751.5,33.6)" d="M3,0A3,3 0 1,1 0,-3A3,3 0 0,1 3,0Z" style="opacity: 0; stroke-width: 0px; fill: rgb(93, 135, 143); fill-opacity: 1;"/></g><g class="text"><g class="textpoint" transform="translate(0,-7.75)"><text x="751.5" y="33.6" text-anchor="middle" style="font-family: 'FK Grotesk Neue'; font-size: 12px; fill: rgb(46, 139, 87); fill-opacity: 1; white-space: pre;">+18.7%</text></g></g></g><g class="trace scatter trace9f5723" style="stroke-miterlimit: 2; opacity: 1;"><g class="fills" clip-path="url(#clip5bbe48xyplot)"/><g class="errorbars"/><g class="lines"/><g class="points"><path class="point" transform="translate(983,60.57)" d="M3,0A3,3 0 1,1 0,-3A3,3 0 0,1 3,0Z" style="opacity: 0; stroke-width: 0px; fill: rgb(210, 186, 76); fill-opacity: 1;"/></g><g class="text"><g class="textpoint" transform="translate(0,-7.75)"><text x="983" y="60.57" text-anchor="middle" style="font-family: 'FK Grotesk Neue'; font-size: 12px; fill: rgb(219, 69, 69); fill-opacity: 1; white-space: pre;">-2.4%</text></g></g></g></g></g></g><path class="xlines-above crisp" d="" style="fill: none; stroke-width: 1px; stroke: rgb(0, 0, 0); stroke-opacity: 0;"/><path class="ylines-above crisp" d="" style="fill: none; stroke-width: 1px; stroke: rgb(0, 0, 0); stroke-opacity: 0;"/><g class="overlines-above"/><g class="xaxislayer-above"><path class="xtick ticks crisp" d="M0,721v5" transform="translate(137,0)" style="stroke: rgb(94, 82, 64); stroke-opacity: 0.2; stroke-width: 1px;"/><path class="xtick ticks crisp" d="M0,721v5" transform="translate(368.5,0)" style="stroke: rgb(94, 82, 64); stroke-opacity: 0.2; stroke-width: 1px;"/><path class="xtick ticks crisp" d="M0,721v5" transform="translate(600,0)" style="stroke: rgb(94, 82, 64); stroke-opacity: 0.2; stroke-width: 1px;"/><path class="xtick ticks crisp" d="M0,721v5" transform="translate(831.5,0)" style="stroke: rgb(94, 82, 64); stroke-opacity: 0.2; stroke-width: 1px;"/><path class="xtick ticks crisp" d="M0,721v5" transform="translate(1063,0)" style="stroke: rgb(94, 82, 64); stroke-opacity: 0.2; stroke-width: 1px;"/><g class="xtick"><text text-anchor="middle" x="0" y="745.2" transform="translate(137,0)" style="font-family: 'FK Grotesk Neue'; font-size: 16px; fill: rgb(98, 108, 113); fill-opacity: 1; white-space: pre; opacity: 1;">April</text></g><g class="xtick"><text text-anchor="middle" x="0" y="745.2" transform="translate(368.5,0)" style="font-family: 'FK Grotesk Neue'; font-size: 16px; fill: rgb(98, 108, 113); fill-opacity: 1; white-space: pre; opacity: 1;">May</text></g><g class="xtick"><text text-anchor="middle" x="0" y="745.2" transform="translate(600,0)" style="font-family: 'FK Grotesk Neue'; font-size: 16px; fill: rgb(98, 108, 113); fill-opacity: 1; white-space: pre; opacity: 1;">June</text></g><g class="xtick"><text text-anchor="middle" x="0" y="745.2" transform="translate(831.5,0)" style="font-family: 'FK Grotesk Neue'; font-size: 16px; fill: rgb(98, 108, 113); fill-opacity: 1; white-space: pre; opacity: 1;">July</text></g><g class="xtick"><text text-anchor="middle" x="0" y="745.2" transform="translate(1063,0)" style="font-family: 'FK Grotesk Neue'; font-size: 16px; fill: rgb(98, 108, 113); fill-opacity: 1; white-space: pre; opacity: 1;">August</text></g></g><g class="yaxislayer-above"><path class="ytick ticks crisp" d="M79,0h-5" transform="translate(0,693.15)" style="stroke: rgb(94, 82, 64); stroke-opacity: 0.2; stroke-width: 1px;"/><path class="ytick ticks crisp" d="M79,0h-5" transform="translate(0,617.29)" style="stroke: rgb(94, 82, 64); stroke-opacity: 0.2; stroke-width: 1px;"/><path class="ytick ticks crisp" d="M79,0h-5" transform="translate(0,541.4200000000001)" style="stroke: rgb(94, 82, 64); stroke-opacity: 0.2; stroke-width: 1px;"/><path class="ytick ticks crisp" d="M79,0h-5" transform="translate(0,465.56)" style="stroke: rgb(94, 82, 64); stroke-opacity: 0.2; stroke-width: 1px;"/><path class="ytick ticks crisp" d="M79,0h-5" transform="translate(0,389.7)" style="stroke: rgb(94, 82, 64); stroke-opacity: 0.2; stroke-width: 1px;"/><path class="ytick ticks crisp" d="M79,0h-5" transform="translate(0,313.83000000000004)" style="stroke: rgb(94, 82, 64); stroke-opacity: 0.2; stroke-width: 1px;"/><path class="ytick ticks crisp" d="M79,0h-5" transform="translate(0,237.97)" style="stroke: rgb(94, 82, 64); stroke-opacity: 0.2; stroke-width: 1px;"/><path class="ytick ticks crisp" d="M79,0h-5" transform="translate(0,162.1)" style="stroke: rgb(94, 82, 64); stroke-opacity: 0.2; stroke-width: 1px;"/><g class="ytick"><text text-anchor="end" x="70.8" y="5.6" transform="translate(0,693.15)" style="font-family: 'FK Grotesk Neue'; font-size: 16px; fill: rgb(98, 108, 113); fill-opacity: 1; white-space: pre; opacity: 1;">16k</text></g><g class="ytick"><text text-anchor="end" x="70.8" y="5.6" style="font-family: 'FK Grotesk Neue'; font-size: 16px; fill: rgb(98, 108, 113); fill-opacity: 1; white-space: pre; opacity: 1;" transform="translate(0,617.29)">18k</text></g><g class="ytick"><text text-anchor="end" x="70.8" y="5.6" style="font-family: 'FK Grotesk Neue'; font-size: 16px; fill: rgb(98, 108, 113); fill-opacity: 1; white-space: pre; opacity: 1;" transform="translate(0,541.4200000000001)">20k</text></g><g class="ytick"><text text-anchor="end" x="70.8" y="5.6" style="font-family: 'FK Grotesk Neue'; font-size: 16px; fill: rgb(98, 108, 113); fill-opacity: 1; white-space: pre; opacity: 1;" transform="translate(0,465.56)">22k</text></g><g class="ytick"><text text-anchor="end" x="70.8" y="5.6" style="font-family: 'FK Grotesk Neue'; font-size: 16px; fill: rgb(98, 108, 113); fill-opacity: 1; white-space: pre; opacity: 1;" transform="translate(0,389.7)">24k</text></g><g class="ytick"><text text-anchor="end" x="70.8" y="5.6" style="font-family: 'FK Grotesk Neue'; font-size: 16px; fill: rgb(98, 108, 113); fill-opacity: 1; white-space: pre; opacity: 1;" transform="translate(0,313.83000000000004)">26k</text></g><g class="ytick"><text text-anchor="end" x="70.8" y="5.6" style="font-family: 'FK Grotesk Neue'; font-size: 16px; fill: rgb(98, 108, 113); fill-opacity: 1; white-space: pre; opacity: 1;" transform="translate(0,237.97)">28k</text></g><g class="ytick"><text text-anchor="end" x="70.8" y="5.6" style="font-family: 'FK Grotesk Neue'; font-size: 16px; fill: rgb(98, 108, 113); fill-opacity: 1; white-space: pre; opacity: 1;" transform="translate(0,162.1)">30k</text></g></g><g class="overaxes-above"/></g></g><g class="polarlayer"/><g class="smithlayer"/><g class="ternarylayer"/><g class="geolayer"/><g class="funnelarealayer"/><g class="pielayer"/><g class="iciclelayer"/><g class="treemaplayer"/><g class="sunburstlayer"/><g class="glimages"/><defs id="topdefs-5bbe48"><g class="clips"/><clipPath id="legend5bbe48"><rect width="158" height="34" x="0" y="0"/></clipPath></defs><g class="layer-above"><g class="imagelayer"/><g class="shapelayer"/></g><g class="infolayer"><g class="legend" pointer-events="all" transform="translate(521,85.39999999999998)"><rect class="bg" shape-rendering="crispEdges" width="158" height="34" x="0" y="0" style="stroke: rgb(68, 68, 68); stroke-opacity: 1; fill: rgb(243, 243, 238); fill-opacity: 1; stroke-width: 0px;"/><g class="scrollbox" transform="" clip-path="url(#legend5bbe48)"><g class="groups"><g class="traces" transform="translate(0,16.9)" style="opacity: 1;"><text class="legendtext" text-anchor="start" x="40" y="6.24" style="font-family: 'FK Grotesk Neue'; font-size: 16px; fill: rgb(19, 52, 59); fill-opacity: 1; white-space: pre;">Patient Footfall</text><g class="layers" style="opacity: 1;"><g class="legendfill"/><g class="legendlines"><path class="js-line" d="M5,0h30" style="fill: none; stroke: rgb(31, 184, 205); stroke-opacity: 1; stroke-width: 3px;"/></g><g class="legendsymbols"><g class="legendpoints"><path class="scatterpts" transform="translate(20,0)" d="M4,0A4,4 0 1,1 0,-4A4,4 0 0,1 4,0Z" style="opacity: 1; stroke-width: 0px; fill: rgb(31, 184, 205); fill-opacity: 1;"/></g></g></g><rect class="legendtoggle" x="0" y="-11.9" width="155.34375" height="23.8" style="fill: rgb(0, 0, 0); fill-opacity: 0;"/></g></g></g><rect class="scrollbar" rx="20" ry="3" width="0" height="0" x="0" y="0" style="fill: rgb(128, 139, 164); fill-opacity: 1;"/></g><g class="g-gtitle"><text class="gtitle" x="600" y="68" text-anchor="middle" dy="-0.3em" style="opacity: 1; font-family: 'FK Grotesk Neue'; font-size: 28px; fill: rgb(19, 52, 59); fill-opacity: 1; font-weight: 1000; white-space: pre;">ESIC Pune Patient Footfall Trends</text></g><g class="g-xtitle"><text class="xtitle" x="600" y="787" text-anchor="middle" style="opacity: 1; font-family: 'FK Grotesk Neue'; font-size: 19px; fill: rgb(19, 52, 59); fill-opacity: 1; font-weight: 600; white-space: pre;">Month</text></g><g class="g-ytitle"><text class="ytitle" transform="rotate(-90,20.553125,434)" x="20.553125" y="434" text-anchor="middle" style="opacity: 1; font-family: 'FK Grotesk Neue'; font-size: 19px; fill: rgb(19, 52, 59); fill-opacity: 1; font-weight: 600; white-space: pre;">Footfall (k)</text></g></g></svg>